<svg viewBox="0 0 1063 384" xmlns="http://www.w3.org/2000/svg"><g fill="#222" fill-rule="nonzero"><path d="M368 160H224V16c0-8.84-7.16-16-16-16h-32c-8.84 0-16 7.16-16 16v144H16c-8.84 0-16 7.16-16 16v32c0 8.84 7.16 16 16 16h144v144c0 8.84 7.16 16 16 16h32c8.84 0 16-7.16 16-16V224h144c8.84 0 16-7.16 16-16v-32c0-8.84-7.16-16-16-16zM1015 0H599c-26.51 0-48 21.49-48 48v288c0 26.51 21.49 48 48 48h416c26.51 0 48-21.49 48-48V48c0-26.51-21.49-48-48-48zm-6 336H605a6 6 0 0 1-6-6V54a6 6 0 0 1 6-6h404a6 6 0 0 1 6 6v276a6 6 0 0 1-6 6zM679 88c-22.091 0-40 17.909-40 40s17.909 40 40 40 40-17.909 40-40-17.909-40-40-40zm-32 200h320v-80l-87.515-87.515c-4.686-4.686-12.284-4.686-16.971 0L743 240l-39.515-39.515c-4.686-4.686-12.284-4.686-16.971 0L647 240v48z"/></g></svg>
